<?xml version="1.0" encoding="UTF-8" standalone="no"?>
<svg
   version="1.1"
   id="Layer_1"
   x="0px"
   y="0px"
   width="100%"
   viewBox="0 0 1024 1024"
   enable-background="new 0 0 1024 1024"
   xml:space="preserve"
   sodipodi:docname="file.svg"
   inkscape:version="1.4.2 (f4327f4, 2025-05-13)"
   xmlns:inkscape="http://www.inkscape.org/namespaces/inkscape"
   xmlns:sodipodi="http://sodipodi.sourceforge.net/DTD/sodipodi-0.dtd"
   xmlns="http://www.w3.org/2000/svg"
   xmlns:svg="http://www.w3.org/2000/svg"><defs
   id="defs1" /><sodipodi:namedview
   id="namedview1"
   pagecolor="#ffffff"
   bordercolor="#000000"
   borderopacity="0.25"
   inkscape:showpageshadow="2"
   inkscape:pageopacity="0.0"
   inkscape:pagecheckerboard="0"
   inkscape:deskcolor="#d1d1d1"
   inkscape:zoom="0.81347656"
   inkscape:cx="512"
   inkscape:cy="310.39616"
   inkscape:window-width="1920"
   inkscape:window-height="1051"
   inkscape:window-x="-9"
   inkscape:window-y="-9"
   inkscape:window-maximized="1"
   inkscape:current-layer="Layer_1" />
<path
   fill="#000000"
   opacity="1.000000"
   stroke="none"
   d=" M369.000061,746.664246   C451.494141,746.662659 533.488159,746.663513 615.482239,746.657532   C627.654358,746.656677 634.714783,741.387085 638.127808,729.702209   C651.845215,682.739441 665.588684,635.784302 679.237427,588.801575   C704.352112,502.349915 729.412476,415.882446 754.479614,329.416962   C758.095032,316.946106 761.640381,304.454803 765.184998,291.963531   C767.660339,283.240326 764.752441,279.418427 755.584900,279.351624   C749.419067,279.306671 743.252197,279.312592 737.086365,279.362976   C727.471191,279.441559 719.792358,284.987305 716.968262,294.299042   C700.349243,349.096497 683.852112,403.930939 667.237915,458.729858   C652.267273,508.107910 637.188599,557.453186 622.178406,606.819275   C615.545227,628.634521 608.948486,650.460938 602.362793,672.290527   C597.638855,687.948853 586.594910,696.230042 570.238647,696.233276   C521.575500,696.242981 472.912384,696.232788 424.249237,696.220886   C422.418396,696.220398 420.562836,696.291077 418.762299,696.029297   C415.767975,695.594055 413.831543,693.807068 413.844818,690.688049   C413.858521,687.469788 415.977814,685.900513 418.987335,685.690002   C423.305237,685.388000 427.637329,685.136108 431.963684,685.131226   C478.626892,685.078369 525.290161,685.085938 571.953430,685.057312   C581.848633,685.051208 588.852844,679.975220 591.708862,670.587891   C609.973694,610.553406 628.241821,550.519775 646.423950,490.460205   C666.582825,423.870911 686.627686,357.247131 706.778381,290.655334   C710.744324,277.549255 722.714783,268.769958 736.325012,268.704285   C743.491028,268.669678 750.658081,268.630157 757.823242,268.714691   C771.408691,268.874969 779.743530,279.487732 776.168640,292.652893   C771.677124,309.193390 766.683899,325.597473 761.933350,342.067932   C761.390625,343.949585 760.561523,345.815155 761.014954,347.879913   C762.869324,349.205322 764.931396,348.624329 766.859009,348.626282   C803.856323,348.664185 840.859436,349.025696 877.847656,348.447144   C890.148621,348.254761 899.947144,357.244110 896.007690,371.692078   C882.485474,421.284302 869.445435,471.007965 856.225952,520.682739   C848.992920,547.862061 841.747620,575.038208 834.548462,602.226562   C830.556335,617.303284 821.134888,625.666199 805.770996,625.774353   C765.611145,626.057129 725.446960,625.878723 685.286133,625.625488   C680.887939,625.597778 679.087402,626.999390 677.934204,631.032166   C668.140564,665.280212 658.197815,699.485718 648.277283,733.697388   C643.853027,748.954834 632.793457,757.313171 617.023926,757.313843   C508.865112,757.318542 400.706268,757.314453 292.547455,757.305298   C276.703796,757.303955 265.838379,749.176758 261.218903,733.901611   C244.256531,677.812195 227.251297,621.735779 210.354752,565.626587   C187.747345,490.553131 165.225220,415.454010 142.668533,340.365265   C138.069626,325.055939 133.413513,309.763367 128.904312,294.427643   C124.375175,279.024109 132.137146,268.713165 148.223236,268.707458   C218.051498,268.682709 287.879761,268.689270 357.708038,268.686859   C358.874390,268.686829 360.043762,268.669281 361.206482,268.742920   C364.495728,268.951263 366.697876,270.632690 366.699036,273.988464   C366.700195,277.288544 364.669403,279.151215 361.294067,279.289551   C359.463440,279.364594 357.628571,279.350616 355.795593,279.350616   C287.300568,279.350372 218.805527,279.347107 150.310501,279.344177   C149.477234,279.344147 148.643661,279.328583 147.810730,279.344849   C139.838837,279.500397 136.850296,283.358276 139.088394,290.941010   C143.988342,307.542114 149.019775,324.104370 153.975601,340.689026   C169.175323,391.554962 184.359848,442.425415 199.569336,493.288422   C200.570480,496.636383 202.048630,499.871979 202.740524,503.274658   C203.664078,507.816559 206.217163,508.766205 210.537094,508.758270   C278.365295,508.633423 346.198425,509.115479 414.019287,508.399597   C434.050873,508.188171 446.540771,518.522583 444.239502,541.056396   C443.014771,553.048401 440.585236,564.723572 435.410248,575.704285   C424.626556,598.586121 405.972076,610.211243 381.424622,613.214294   C368.024017,614.853638 354.843719,614.058960 342.167145,608.800476   C320.076813,599.636902 309.032379,581.791321 303.943420,559.584961   C301.109039,547.216675 299.973053,534.581238 301.539612,521.872559   C301.929993,518.705627 301.154083,517.282471 297.669586,517.292236   C268.671967,517.373291 239.674057,517.332275 210.676239,517.346741   C209.871857,517.347107 209.067566,517.556458 208.355270,517.655579   C207.326187,519.559082 208.255630,521.104492 208.712494,522.624878   C221.930878,566.613403 235.198425,610.587097 248.415298,654.576050   C256.076782,680.075439 263.693878,705.588196 271.270355,731.112915   C274.127411,740.738098 281.814545,746.640076 292.007416,746.652405   C317.504944,746.683228 343.002502,746.663757 369.000061,746.664246  z"
   id="path1" />
</svg>
