<?xml version="1.0" encoding="UTF-8" standalone="no"?>
<svg
   version="1.1"
   id="Layer_1"
   x="0px"
   y="0px"
   width="256"
   viewBox="0 0 256 256"
   enable-background="new 0 0 1024 1024"
   xml:space="preserve"
   sodipodi:docname="FullCup2.svg"
   height="256"
   inkscape:version="1.4.2 (f4327f4, 2025-05-13)"
   xmlns:inkscape="http://www.inkscape.org/namespaces/inkscape"
   xmlns:sodipodi="http://sodipodi.sourceforge.net/DTD/sodipodi-0.dtd"
   xmlns="http://www.w3.org/2000/svg"
   xmlns:svg="http://www.w3.org/2000/svg"><defs
   id="defs1" /><sodipodi:namedview
   id="namedview1"
   pagecolor="#ffffff"
   bordercolor="#000000"
   borderopacity="0.25"
   inkscape:showpageshadow="2"
   inkscape:pageopacity="0.0"
   inkscape:pagecheckerboard="0"
   inkscape:deskcolor="#d1d1d1"
   inkscape:zoom="2.3008592"
   inkscape:cx="166.24225"
   inkscape:cy="115.39168"
   inkscape:window-width="1920"
   inkscape:window-height="1051"
   inkscape:window-x="-9"
   inkscape:window-y="-9"
   inkscape:window-maximized="1"
   inkscape:current-layer="Layer_1" />
<path
   fill="#000000"
   opacity="1"
   stroke="none"
   d="m 81.242188,246.23172 c 27.525452,-0.33961 55.180502,0.67862 82.624462,-0.51458 8.85968,-10.39065 6.38589,-26.74515 10.53132,-39.51279 C 186.24846,141.3991 198.76473,76.676377 210.04689,11.791555 203.97997,1.4069474 190.19107,13.449944 192.6181,23.703436 180.54592,86.198562 168.61973,148.73191 156.28189,211.16984 c -2.62306,13.46672 -17.86854,8.47527 -27.51311,9.38232 -10.45992,-0.0632 -20.92675,0.12103 -31.38223,-0.10585 -3.711204,-9.9743 16.00303,-3.88567 22.73353,-5.57106 9.71652,-0.29704 19.55947,0.59071 29.19178,-0.49662 7.00311,-7.28398 5.37744,-19.07665 8.35004,-28.38656 11.37089,-58.10607 22.26353,-116.314277 33.76593,-174.388627 1.8118,-13.4416116 26.88012,-11.70733713 21.91209,3.413251 -0.77448,9.343805 -5.40777,20.167176 -3.97723,28.568651 13.19538,0.443244 26.78292,-0.931665 39.74889,0.619706 8.07644,12.125505 -2.15107,28.244278 -2.17588,41.87244 -5.44047,30.540039 -9.80938,61.323199 -15.95985,91.703239 -7.33047,13.67826 -27.16635,4.13297 -39.79183,6.87849 -14.68597,-4.12299 -9.97289,15.45363 -13.60693,23.93442 -2.94125,12.68664 -3.50517,26.09612 -8.21898,38.25706 -7.12247,9.07426 -20.67793,3.07208 -30.67731,4.8076 -28.02774,-0.12791 -56.082212,0.25606 -84.093186,-0.19573 C 41.242286,243.39833 45.583774,223.4506 40.596728,210.2778 28.058456,144.55625 15.128117,78.890192 2.9812866,13.104185 2.3774328,-4.0971749 24.612323,5.1140153 35.101728,2.8114707 49.638934,2.8283843 64.177099,2.7726802 78.713708,2.8392726 84.240865,12.858026 63.957145,6.4735572 58.208573,8.2411124 41.440293,8.5322608 24.528262,7.6653291 7.846348,8.6513013 4.9117453,18.256347 10.696375,29.309189 11.481779,39.479336 c 5.701568,28.304445 10.217274,57.02118 16.672323,85.066384 15.448958,1.20497 31.419348,0.2188 47.064746,0.53585 11.051425,0.58573 31.173892,-4.85788 30.492912,12.42633 -0.45123,14.03975 -2.19764,32.17193 -16.164832,39.43002 -11.20187,5.75804 -23.824195,-3.06231 -26.651475,-14.31007 -6.160265,-9.56216 0.38412,-27.50143 -6.558965,-33.20156 -8.056385,1.8423 -23.567379,-3.60409 -27.096415,2.70867 7.201945,36.46584 13.602758,73.14241 21.272877,109.48178 6.262439,8.83511 19.683809,2.87266 29.14965,4.61637 l 1.579588,-1e-4 z"
   id="path1"
   style="stroke-width:0.406477" />
</svg>
